PathFileType	4	(X/Y/Z)	C:/Users/beibeiliu/ov580/test_trc/User2\sequence.15_training_dense_left.trc
DataRate	CameraRate	NumFrames	NumMarkers	Units	OrigDataRate	OrigDataStartFrame	OrigNumFrames
120	120	18	19	mm	120	58	86
Frame#	Time	ThumbCMC			ThumbMCP			ThumbIP			ThumbTip			IndexMCP			IndexPIP			IndexTip			MiddleMCP			MiddlePIP			MiddleTip			RingMCP			RingPIP			RingTip			PinkyMCP			PinkyPIP			PinkyTip			BackHand1			BackHand2			BackHand3	
		X0	Y0	Z0	X1	Y1	Z1	X2	Y2	Z2	X3	Y3	Z3	X4	Y4	Z4	X5	Y5	Z5	X6	Y6	Z6	X7	Y7	Z7	X8	Y8	Z8	X9	Y9	Z9	X10	Y10	Z10	X11	Y11	Z11	X12	Y12	Z12	X13	Y13	Z13	X14	Y14	Z14	X15	Y15	Z15	X16	Y16	Z16	X17	Y17	Z17	X18	Y18	Z18	
57	0.475	-160.928	47.5671	28.6905	-128.815	32.2207	14.3713	-109.674	11.0947	-11.5254	-112.221	-7.21465	-29.4295	-159.263	65.8247	-54.9998	-151.145	68.6809	-79.1708	-143.187	74.8933	-103.518	-156.262	28.6283	-63.8118	-128.684	7.23925	-60.7581	-125.875	-2.5872	-17.9583	-159.98	6.11022	-58.2807	-135.57	-10.0605	-45.5617	-138.129	-7.26541	-12.158	-176.146	-11.1802	-48.0314	-146.868	-23.8842	-31.9165	-151.714	-14.5662	-1.4119	-211.313	23.5025	-17.8652	-225.214	30.218	13.25	-199.254	55.5641	5.68081	
58	0.483333	-179.609	86.8285	33.5437	-142.39	86.2903	23.2896	-112.476	79.1188	6.56116	-102.121	56.5976	-12.7897	-174.881	88.3507	-50.0734	-164.422	93.2375	-74.6866	-154.759	98.2296	-103.871	-151.95	61.5061	-52.8708	-114.04	60.0586	-40.8442	-116.175	57.6009	-1.47378	-145.349	39.6617	-44.9027	-115.867	40.4235	-27.0925	-125.154	45.5614	4.16972	-146.724	18.3679	-33.5714	-121.217	27.4281	-14.2923	-139.061	34.1738	15.1655	-200.129	35.9159	-15.6433	-221.012	29.2826	15.1883	-211.471	66.0941	2.86638	
59	0.491667	-208.315	102.208	28.5714	-174.018	120.521	22.1778	-141.574	127.603	10.1075	-119.188	111.221	-1.953	-190.226	97.8239	-57.6885	-181.04	105.927	-82.2584	-169.735	106.574	-102.733	-153.243	85.5289	-51.234	-126.213	104.794	-39.7058	-128.734	105.499	1.31849	-138.483	72.116	-38.0885	-119.993	91.5105	-19.3698	-134.947	92.6916	14.4509	-135.716	52.6964	-20.9747	-118.909	77.2651	-0.0481025	-140.115	77.4233	19.7199	-190.281	36.7526	-8.53568	-210.119	27.7574	15.5817	-220.92	67.2518	-1.33524	
60	0.5	-229.465	99.2281	18.4178	-203.901	127.582	12.8842	-171.415	147.557	0.0764554	-147.555	139.854	-6.75548	-203.71	91.075	-59.0928	-195.004	97.3444	-86.376	-182.999	102.705	-114.882	-168.44	96.9957	-56.1884	-146.064	122.588	-46.3078	-154.543	134.967	-5.48933	-148.284	87.9714	-41.0608	-134.209	113.899	-25.2264	-150.715	120.374	4.13234	-140.439	75.3541	-22.5051	-130.647	103.343	-6.28768	-151.626	104.636	18.3615	-187.086	45.1767	-13.4241	-206.436	29.8994	15.9325	-221.227	57.5431	-5.46896	
61	0.508333	-242.4	89.333	9.02852	-223.78	122.983	2.43246	-198.369	146.081	-9.9215	-168.859	146.747	-21.6987	-215.96	77.2548	-67.616	-210.523	83.1766	-96.7702	-205.76	90.1387	-123.562	-181.89	92.0247	-65.986	-165.194	123.298	-56.3836	-174.17	135.311	-19.9519	-160.492	85.218	-49.4481	-153.488	116.982	-40.4357	-165.814	123.757	-6.35578	-146.871	77.822	-31.9647	-147.114	109.767	-19.3024	-168.841	108.97	3.17148	-189.883	40.3295	-18.5377	-205.43	25.9217	9.50114	-233.704	46.944	-11.3791	
62	0.516667	-250.115	74.8664	2.79053	-232.374	109.166	-11.9939	-211.678	129.941	-25.0418	-183.257	131.254	-40.1627	-230.865	57.7954	-79.1308	-228.812	61.0652	-104.335	-221.333	64.5167	-134.381	-197.118	71.7925	-76.9785	-183.297	108.18	-74.1943	-184.377	121.488	-37.9275	-173.669	71.5256	-63.9967	-168.374	102.078	-60.0131	-178.478	114.4	-24.5273	-159.564	63.4697	-45.4283	-157.536	97.2351	-37.9011	-178.039	102.773	-11.3234	-201.893	24.3109	-21.6658	-212.529	14.9222	6.12873	-238.553	32.4175	-15.3532	
63	0.525	-253.783	61.2597	-5.05899	-237.544	91.6547	-24.1503	-216.138	108.813	-45.0656	-189.975	106.205	-60.436	-246.178	34.1072	-83.6369	-245.613	34.2625	-112.929	-244.057	33.6903	-140.63	-209.235	44.4439	-87.8307	-195.035	76.4287	-91.7908	-195.858	98.4909	-57.7475	-189.286	41.6184	-74.8183	-179.328	74.9783	-76.0395	-183.374	92.2327	-45.7229	-174.185	36.017	-57.4724	-165.183	70.6392	-56.6507	-185.756	84.6276	-33.3741	-213.796	6.55763	-26.6677	-217.932	-3.73652	6.57251	-249.641	15.7991	-19.2168	
64	0.533333	-260.174	49.8696	-13.8529	-241.416	76.4844	-35.0459	-218.993	87.989	-66.9689	-196.848	78.725	-79.2107	-266.979	12.3193	-88.232	-270.228	9.95991	-116.104	-272.824	7.72311	-138.931	-231.658	15.8052	-94.3291	-208.255	45.7657	-102.623	-202.558	71.019	-72.9954	-205.589	11.7801	-84.5027	-192.361	40.8522	-89.7731	-194.745	65.9812	-62.6582	-193.282	8.40204	-66.9239	-180.246	39.741	-72.436	-187.183	61.636	-50.6305	-232.029	-12.8729	-27.6588	-236.649	-12.681	5.83818	-265.187	7.10035	-17.6371	
65	0.541667	-274.947	50.4919	-17.3546	-254.715	68.6915	-48.3232	-235.849	76.9873	-72.3744	-217.008	66.0712	-93.5389	-295.497	7.99887	-81.5937	-299.91	2.67557	-111.923	-307.269	-4.723	-137.17	-261.336	4.24901	-95.5417	-234.324	27.3354	-109.606	-218.946	52.7557	-87.553	-238.437	0.498617	-88.7413	-219.419	25.6401	-97.2391	-212.283	49.9973	-73.6839	-219.692	-5.31187	-74.185	-202.594	21.1528	-81.3741	-210.999	48.0205	-64.7009	-255.945	-16.6361	-24.3092	-256.65	-17.0646	5.491	-284.554	4.15999	-13.5965	
66	0.55	-293.074	55.8221	-17.2485	-275.909	71.7228	-48.5626	-259.651	73.6137	-80.9774	-244.376	62.0894	-103.962	-327.771	11.9703	-73.7738	-337.975	7.10508	-101.46	-348.023	1.35627	-127.28	-294.2	1.83504	-92.7656	-274.974	22.1996	-113.332	-247.187	48.7254	-93.6182	-271.153	-4.26287	-88.46	-250.098	16.5115	-102.138	-240.036	42.8029	-83.6323	-252.806	-14.4387	-72.7454	-238.119	12.1737	-88.7279	-231.008	37.8998	-71.0521	-283.618	-15.6255	-20.9505	-277.351	-11.5144	8.0463	-307.484	10.0831	-7.63625	
67	0.558333	-305.622	63.5127	-14.6724	-287.136	74.3969	-47.223	-275.419	76.2244	-83.1706	-265.37	56.9338	-104.437	-353.229	25.0589	-66.942	-367.805	26.6503	-91.2487	-381.858	25.0015	-115.072	-324.365	11.2044	-86.0486	-301	27.522	-110.695	-269.888	45.5659	-98.6733	-303.519	0.441	-85.8645	-280.102	20.4222	-101.392	-261.974	42.6139	-83.8233	-284.646	-11.5567	-77.5092	-265.751	11.9565	-91.9518	-256.195	36.802	-72.9884	-309.745	-10.9521	-18.5336	-299.772	-5.04032	9.21499	-325.846	20.8151	-3.3483	
68	0.566667	-301.505	71.5574	-10.9081	-282.706	78.6175	-45.9436	-273.667	75.3979	-77.7617	-268.546	58.7276	-104.54	-364.164	51.3166	-63.6577	-379.895	55.4393	-88.416	-391.548	55.1859	-109.273	-341.042	27.4651	-82.6992	-316.764	35.8419	-107.78	-281.335	49.4359	-99.7812	-324.142	13.0257	-81.7547	-298.024	24.6504	-100.755	-270.536	38.3179	-87.5944	-307.175	-7.18373	-75.3106	-286.211	13.9114	-92.9103	-269.47	35.0013	-78.0625	-327.994	2.07252	-19.3023	-314.722	0.121986	12.8193	-332.285	34.3225	-1.07826	
69	0.575	-288.797	72.3637	-7.54381	-271.484	74.5997	-45.8207	-263.207	71.1302	-79.5308	-264.355	53.8235	-103.098	-354.583	82.3707	-59.3559	-367.336	88.6822	-84.666	-380.04	93.4725	-105.003	-341.9	49.9574	-81.785	-318.367	49.6723	-106.062	-277.862	48.9333	-97.1237	-330.687	26.4817	-80.5269	-305.916	29.5623	-100.055	-273.898	38.2963	-86.5099	-322.865	5.77935	-74.3452	-296.884	18.3185	-91.4232	-271.993	28.7693	-78.9063	-336.253	17.3049	-12.8935	-321.021	11.9885	17.7502	-328.82	51.3337	3.29614	
70	0.583333	-267.605	69.9163	-7.55281	-256.11	60.7831	-42.813	-250.232	54.22	-79.2812	-261.733	39.7672	-102.423	-327.089	102.81	-57.1033	-332.906	113.989	-76.8691	-347.809	124.178	-103.368	-328.708	71.5693	-75.4693	-309.335	58.8169	-103.581	-274.046	44.0176	-96.5092	-330.669	42.5031	-76.8118	-301.788	36.4258	-97.2439	-270.285	26.9965	-81.3071	-329.911	19.3761	-71.6406	-303.123	15.2662	-88.4565	-273.219	22.0893	-71.0932	-336.668	36.9531	-12.1389	-320.78	31.2578	19.9769	-313.503	65.5797	6.15439	
71	0.591667	-249.899	56.3039	-11.044	-238.05	40.5586	-42.4693	-243.212	30.746	-77.5645	-258.195	19.8579	-101.631	-296.049	102.404	-60.3506	-297.126	117.696	-83.4993	-304.691	132.019	-105.875	-309.008	76.9257	-75.1797	-292.888	57.7238	-103.05	-267.368	26.1622	-92.3725	-317.236	52.0493	-77.1513	-301.764	35.1219	-95.0548	-272.293	12.867	-77.7831	-328.51	30.1182	-62.9109	-303.114	16.1872	-83.6153	-274.423	9.40907	-66.4746	-324.216	52.5006	-11.3569	-314.349	42.253	21.4528	-290.125	72.99	4.65254	
72	0.6	-231.492	37.2936	-7.75205	-227.981	18.3742	-42.204	-232.75	6.29406	-77.2268	-255.834	0.323253	-95.8038	-265.219	91.9474	-65.397	-265.134	103.389	-88.0448	-265.194	116.785	-109.864	-288.827	67.3412	-80.6675	-280.902	38.945	-103.553	-265.61	7.78499	-89.236	-303.812	47.5725	-76.8166	-289.837	23.0039	-93.9606	-268.271	0.0808056	-73.4406	-314.959	33.2428	-62.0968	-299.13	8.03346	-79.3388	-275.634	-6.58413	-58.8417	-307.237	56.2635	-8.89706	-297.242	47.223	24.5769	-269.503	65.72	3.70332	
73	0.608333	-218.864	24.7127	-6.20176	-219.641	3.51879	-40.2061	-227.167	-13.3142	-73.7713	-244.796	-22.3314	-91.1844	-241.741	74.0773	-68.9469	-238.343	84.4337	-95.2727	-243.034	95.0267	-121.396	-268.004	52.4754	-81.4901	-267.303	23.3004	-102.401	-255.228	-12.4152	-80.9813	-286.673	36.9726	-75.6491	-276.663	6.18231	-89.6384	-261.241	-16.542	-65.7381	-301.516	21.3729	-64.2126	-288.255	-8.25461	-71.5434	-265.239	-12.6001	-46.3653	-286.051	53.2252	-14.1269	-285.377	46.2047	18.9283	-251.607	58.7167	-1.65185	
74	0.616667	-208.591	16.5872	-5.94524	-203.557	-11.5286	-35.6931	-214.806	-30.9565	-66.6541	-231.167	-41.8754	-83.8568	-228.586	56.6567	-74.5373	-226.759	62.7335	-101.103	-224.253	70.2681	-127.386	-254.966	32.9884	-85.5425	-253.433	0.356181	-99.0074	-240.812	-29.2555	-77.5892	-272.211	20.2401	-74.6793	-266.203	-15.1626	-84.974	-251.375	-31.4708	-62.3606	-290.479	5.17507	-59.8427	-274.459	-21.2329	-64.5206	-253.667	-24.3456	-38.2653	-276.046	41.4492	-13.0906	-267.428	43.9582	19.3313	-236.558	51.1304	-3.73714	
